<?xml version="1.0" encoding="UTF-8" standalone="no"?>
<svg
   xmlns:svg="http://www.w3.org/2000/svg"
   xmlns="http://www.w3.org/2000/svg"
   xmlns:xlink="http://www.w3.org/1999/xlink"
   version="1.0" width="6in" height="3in">
  <defs
 id="defs3">
<linearGradient
id="linearGradient14231">
<stop
  style="stop-color:#dddddd;stop-opacity:1"
  offset="0"
  id="stop14233" />
<stop
  style="stop-color:#dddddd;stop-opacity:0"
  offset="1"
  id="stop14235" />
</linearGradient>
<linearGradient
x1="147.8557"
y1="700.05035"
x2="110.20206"
y2="657.97473"
id="linearGradient14237"
xlink:href="#linearGradient14231"
gradientUnits="userSpaceOnUse"
gradientTransform="matrix(1.766857,0,0,0.565977,-91.92384,-210.7178)" />
<linearGradient
x1="147.8557"
y1="700.05035"
x2="110.20206"
y2="657.97473"
id="linearGradient2112"
xlink:href="#linearGradient14231"
gradientUnits="userSpaceOnUse"
gradientTransform="matrix(1.766857,0,0,0.565977,-90.36186,-209.7173)" />
  </defs>
  <g
 id="layer1">
<g
id="g1406">
<path
  d="M 39.363466,64.299446 L 337.79792,160.66327 C 318.82535,195.75498 411.10141,304.77756 493.4003,247.70845 C 514.1111,225.7258 486.38871,180.19993 461.28122,171.26779 C 445.69948,165.72449 390.94124,157.34123 369.35151,142.23237 C 347.76178,127.1235 351.36609,126.41697 327.89512,119.75059 C 279.61962,106.03906 58.455926,53.107176 39.363466,64.299446 z M 360.30533,190.25119 C 345.60248,171.37876 386.76711,166.16846 444.27095,185.21788 C 502.82282,206.95058 485.2023,239.25751 464.75686,244.75347 C 419.86756,256.8202 374.50784,215.24772 360.30533,190.25119 z "
  style="fill:#737373;fill-rule:evenodd;stroke:none;stroke-width:1;stroke-linecap:butt;stroke-linejoin:miter;stroke-miterlimit:4;stroke-opacity:1"
  id="path1295" />
<path
  d="M 446.84812,6.1254773 C 380.4031,3.5067771 322.37041,80.832202 337.78562,109.34423 L 39.348116,205.68798 C 58.440574,216.88025 279.60387,163.962 327.87937,150.25048 C 351.35034,143.5841 347.75839,142.89059 369.34812,127.78173 C 390.93785,112.67287 445.70387,104.26254 461.28562,98.719227 C 486.39311,89.787086 514.09016,44.264377 493.37937,22.281727 C 477.94833,11.581268 462.18159,6.7297973 446.84812,6.1254773 z M 447.94187,23.094227 C 453.50596,23.063478 459.14321,23.742137 464.75437,25.250477 C 485.19981,30.746438 502.80622,63.049037 444.25437,84.781727 C 386.75053,103.83115 345.58276,98.622907 360.28562,79.750477 C 372.71282,57.878516 408.99323,23.309447 447.94187,23.094227 z "
  style="fill:#888888;fill-rule:evenodd;stroke:none;stroke-width:10;stroke-linecap:butt;stroke-linejoin:miter;stroke-miterlimit:4;stroke-opacity:1"
  id="use2824" />
<path
  d="M 272.49285,130.41706 L 39.367846,205.69831 C 39.377366,205.70382 39.389476,205.72408 39.399096,205.72956 C 46.755686,209.92335 83.078596,204.90098 127.8991,196.35456 L 279.18035,147.66706 L 272.49285,130.41706 z "
  style="fill:url(#linearGradient2112);fill-rule:evenodd;stroke:none;stroke-width:10;stroke-linecap:butt;stroke-linejoin:miter;stroke-miterlimit:4;stroke-opacity:1"
  id="path11952" />
<path
  d="M 258.25 65.875 A 12.125 12.125 0 1 1  234,65.875 A 12.125 12.125 0 1 1  258.25 65.875 z"
  transform="translate(68.5,69.11888)"
  style="color:#000000;fill:#b6b6b6;fill-rule:evenodd;stroke:none;stroke-width:1;stroke-linecap:butt;stroke-linejoin:miter;marker:none;marker-start:none;marker-mid:none;marker-end:none;stroke-miterlimit:4;stroke-dashoffset:0;stroke-opacity:1;visibility:visible;display:inline;overflow:visible"
  id="path2095" />
<rect
  width="24.75"
  height="3.21875"
  rx="1.609375"
  ry="0"
x="-83.199677"
y="333.41171"
transform="matrix(0.19608,-0.980588,0.980588,0.19608,0,0)"
style="color:#000000;fill:#737373;fill-rule:evenodd;stroke:none;stroke-width:1;stroke-linecap:butt;stroke-linejoin:miter;marker:none;marker-start:none;marker-mid:none;marker-end:none;stroke-miterlimit:4;stroke-dashoffset:0;stroke-opacity:1;visibility:visible;display:inline;overflow:visible"
id="rect2855" />
</g>
  </g>
</svg>
